<?xml version="1.0" standalone="no"?>
<!DOCTYPE svg PUBLIC "-//W3C//DTD SVG 20010904//EN"
 "http://www.w3.org/TR/2001/REC-SVG-20010904/DTD/svg10.dtd">
<svg version="1.0" xmlns="http://www.w3.org/2000/svg"
 width="256.000000pt" height="256.000000pt" viewBox="0 0 256.000000 256.000000"
 preserveAspectRatio="xMidYMid meet">
<metadata>
Created by potrace 1.14, written by Peter Selinger 2001-2017
</metadata>
<g transform="translate(0.000000,256.000000) scale(0.100000,-0.100000)"
fill="#000000" stroke="none">
<path d="M608 2378 c-9 -7 -24 -42 -34 -78 -32 -121 -42 -126 -151 -75 l-78
36 -52 -58 c-29 -32 -52 -62 -53 -67 0 -5 18 -40 40 -78 60 -105 56 -117 -51
-154 l-80 -28 3 -85 3 -86 87 -24 c114 -32 119 -42 70 -145 l-36 -77 54 -54
c30 -30 60 -55 67 -55 8 0 46 18 86 41 96 55 109 50 151 -56 17 -44 37 -80 44
-79 6 1 43 2 82 3 l69 1 21 73 c12 39 24 80 26 89 9 32 48 31 122 -1 39 -17
75 -31 80 -31 11 0 112 107 112 118 0 4 -20 41 -44 82 -57 97 -51 111 55 150
l74 27 3 85 3 85 -87 24 c-121 33 -126 44 -79 145 19 43 34 80 33 83 -2 4 -29
30 -60 60 l-57 53 -80 -46 c-106 -61 -118 -57 -156 53 l-28 81 -72 0 c-42 0
-78 -5 -87 -12z m172 -426 c98 -49 107 -195 15 -252 -39 -24 -113 -27 -156 -5
-68 36 -91 139 -46 206 26 39 79 69 122 69 17 0 46 -8 65 -18z"/>
<path d="M1835 1721 l-46 -140 -50 -16 -49 -17 -105 96 -105 96 -53 -30 c-28
-17 -78 -45 -109 -63 -33 -18 -58 -39 -58 -48 0 -9 11 -67 25 -129 14 -62 25
-123 25 -135 0 -11 -15 -36 -34 -54 l-34 -33 -122 26 c-67 14 -130 26 -140 26
-13 0 -37 -33 -79 -106 -60 -104 -61 -107 -44 -128 10 -11 54 -60 97 -109 l79
-87 -12 -53 -12 -54 -134 -43 -135 -43 0 -128 0 -127 140 -47 139 -46 14 -47
c16 -55 18 -52 -72 -151 l-63 -71 237 0 237 0 -18 28 c-116 177 -163 341 -151
532 22 351 258 642 602 746 79 24 107 27 225 27 163 0 248 -20 378 -87 47 -25
87 -44 89 -42 2 2 2 97 1 211 l-3 208 -72 -61 -71 -62 -62 14 c-34 8 -63 16
-65 18 -1 2 -22 63 -46 136 l-43 132 -127 0 -127 0 -47 -139z"/>
<path d="M1885 1256 c-146 -34 -261 -98 -360 -201 -255 -265 -258 -699 -5
-963 l31 -32 475 0 474 0 0 514 0 515 -42 34 c-115 92 -244 138 -403 143 -71
2 -131 -1 -170 -10z m226 -549 c77 -52 101 -140 58 -217 -43 -76 -150 -104
-220 -57 -58 39 -81 83 -77 147 3 35 11 66 23 82 50 67 152 88 216 45z"/>
</g>
</svg>
